<svg xmlns="http://www.w3.org/2000/svg" width="106.78" height="117.471" viewBox="0 0 106.78 117.471"><defs><style>.a{fill:#7ab3d7;}.b{fill:#262c5a;}</style></defs><g transform="translate(-831.72 -378.529)"><rect class="a" width="99.271" height="99.271" rx="11" transform="translate(839.229 396.729)"/><g transform="translate(831.72 378.529)"><g transform="translate(86.296 48.191)"><path class="b" d="M430,223.217a2.164,2.164,0,1,0,.634,1.531A2.185,2.185,0,0,0,430,223.217Z" transform="translate(-426.304 -222.583)"/></g><g transform="translate(0 0)"><path class="b" d="M124.942,4.473A9.91,9.91,0,0,0,106.955,7.9l-.23,1.112A12.524,12.524,0,0,0,82.34,13.04v1.884a12.491,12.491,0,0,0,3.976,9.143,13.893,13.893,0,0,0-2.6,1.336,13.7,13.7,0,0,0-5.934,8.737l-1.766,8.8-4.06,4.083h-16.9A7,7,0,0,0,48.589,56.7H46.834a8.944,8.944,0,0,0-8.653,6.688L35.626,73.2a2.165,2.165,0,1,0,4.19,1.092l2.555-9.807a4.613,4.613,0,0,1,4.463-3.449H78.55a2.164,2.164,0,0,0,1.539-.642L91.049,49.32a2.165,2.165,0,0,0-3.077-3.046L77.647,56.7H55.062a2.675,2.675,0,0,1,0-5.351h17.8a2.166,2.166,0,0,0,1.535-.638L86.791,38.251A2.165,2.165,0,1,0,83.72,35.2l-2.166,2.178.476-2.371a9.452,9.452,0,1,1,18.511,3.836c0,.016,0,.032-.008.048L95.106,65.081a6.521,6.521,0,0,1-6.36,5.177H57.967a9.965,9.965,0,0,0-9.853,8.875,2.17,2.17,0,0,0-.107.306l-6.632,25.453a2.179,2.179,0,0,1-2.108,1.629H34.238a2.179,2.179,0,0,1-2.109-2.728l3.616-13.878a2.165,2.165,0,1,0-4.19-1.092L27.939,102.7a6.509,6.509,0,0,0,6.3,8.15h5.028a6.51,6.51,0,0,0,6.3-4.868l5.022-19.276c.1.11.2.22.305.327a10.19,10.19,0,0,0,7.228,3.043H68.659l-7.4,17.776a2.165,2.165,0,0,0,2,3h33.4a2.165,2.165,0,0,0,2-3l-7.4-17.776H102.1a9.949,9.949,0,0,0,9.7-7.9l4.74-22.87a2.165,2.165,0,0,0-4.24-.879L107.563,81.3a5.6,5.6,0,0,1-5.464,4.447H58.12A5.833,5.833,0,0,1,53.983,84a5.455,5.455,0,0,1-1.6-3.944,5.607,5.607,0,0,1,5.579-5.471H88.746a10.868,10.868,0,0,0,10.6-8.629L111.2,8.78a5.58,5.58,0,1,1,10.927,2.265L115.69,42.088a2.165,2.165,0,1,0,4.24.879l6.433-31.043A9.845,9.845,0,0,0,124.942,4.473ZM86.556,90.078l6.849,16.444H66.5L73.35,90.078ZM94.866,23.12a8.205,8.205,0,0,1-8.2-8.2V13.04a8.2,8.2,0,1,1,16.392,0v1.884A8.205,8.205,0,0,1,94.866,23.12Zm7.711,5.908a13.8,13.8,0,0,0-2.493-2.72,12.578,12.578,0,0,0,3.568-2.466Z" transform="translate(-27.725 0)"/></g><g transform="translate(5.879 79.071)"><path class="b" d="M58.573,365.845a2.164,2.164,0,1,0,.634,1.531A2.182,2.182,0,0,0,58.573,365.845Z" transform="translate(-54.877 -365.211)"/></g></g></g></svg>