<svg xmlns="http://www.w3.org/2000/svg" width="121" height="77.653" viewBox="0 0 121 77.653"><defs><style>.a{fill:#7ab3d7;}.b{fill:#262c5a;}</style></defs><g transform="translate(-461 -766.891)"><rect class="a" width="108.15" height="63.649" rx="7" transform="translate(467.425 773.8)"/><g transform="translate(461 766.891)"><path class="b" d="M115.08,91.709H5.92A5.927,5.927,0,0,0,0,97.629V117.9a2.368,2.368,0,0,0,2.368,2.368,10.265,10.265,0,0,1,0,20.53A2.368,2.368,0,0,0,0,143.168v20.274a5.927,5.927,0,0,0,5.92,5.92H49.886a2.368,2.368,0,1,0,0-4.736H5.92a1.186,1.186,0,0,1-1.184-1.184V145.349a15,15,0,0,0,0-29.628V97.629A1.185,1.185,0,0,1,5.92,96.445H115.08a1.186,1.186,0,0,1,1.184,1.184v65.813a1.186,1.186,0,0,1-1.184,1.184H71.114a2.368,2.368,0,0,0,0,4.736H115.08a5.927,5.927,0,0,0,5.92-5.92V97.629a5.927,5.927,0,0,0-5.92-5.92Z" transform="translate(0 -91.709)"/><path class="b" d="M142.912,220.512a6.531,6.531,0,0,0,6.524-6.524v-20.3a6.53,6.53,0,0,0-6.524-6.521H100.707a6.53,6.53,0,0,0-6.524,6.521v20.3a6.531,6.531,0,0,0,6.524,6.524h.954a7.1,7.1,0,0,0,13.392,0h13.513a7.1,7.1,0,0,0,13.392,0Zm1.788-26.824v7.658h-7.854V191.9h6.067a1.789,1.789,0,0,1,1.788,1.785Zm-33.191,7.658V191.9h7.933v9.443Zm12.668-9.443h7.933v9.443h-7.933Zm-23.471,0h6.067v9.443H98.919v-7.658a1.789,1.789,0,0,1,1.788-1.785Zm-1.788,22.086v-7.906H144.7v7.906a1.79,1.79,0,0,1-1.788,1.788h-.953a7.1,7.1,0,0,0-13.393,0H115.053a7.1,7.1,0,0,0-13.393,0h-.953A1.79,1.79,0,0,1,98.919,213.988Zm9.438,6.523a2.368,2.368,0,1,1,2.368-2.368A2.371,2.371,0,0,1,108.357,220.511Zm26.905,0a2.368,2.368,0,1,1,2.368-2.368A2.371,2.371,0,0,1,135.262,220.511Z" transform="translate(-71.925 -164.608)"/><path class="b" d="M355.194,296.079a2.368,2.368,0,1,0,4.736,0v-2.368a2.368,2.368,0,1,0-4.736,0Z" transform="translate(-271.252 -244.164)"/><path class="b" d="M355.194,346.176a2.368,2.368,0,0,0,4.736,0v-2.368a2.368,2.368,0,0,0-4.736,0Z" transform="translate(-271.252 -282.422)"/><path class="b" d="M355.194,245.981a2.368,2.368,0,1,0,4.736,0v-2.368a2.368,2.368,0,1,0-4.736,0Z" transform="translate(-271.252 -205.905)"/><path class="b" d="M355.194,195.883a2.368,2.368,0,1,0,4.736,0v-2.368a2.368,2.368,0,1,0-4.736,0Z" transform="translate(-271.252 -167.647)"/><path class="b" d="M357.561,148.153a2.368,2.368,0,0,0,2.368-2.368v-2.368a2.368,2.368,0,0,0-4.736,0v2.368A2.368,2.368,0,0,0,357.561,148.153Z" transform="translate(-271.251 -129.389)"/><path class="b" d="M406.316,221.19V180.144a2.368,2.368,0,1,0-4.736,0V221.19a2.368,2.368,0,1,0,4.736,0Z" transform="translate(-306.675 -157.436)"/><path class="b" d="M450.152,287.509V266.986a2.368,2.368,0,1,0-4.736,0v20.523a2.368,2.368,0,1,0,4.736,0Z" transform="translate(-340.152 -223.755)"/><ellipse class="b" cx="2.363" cy="2.363" rx="2.363" ry="2.363" transform="translate(58.137 72.922)"/></g></g></svg>