<svg xmlns="http://www.w3.org/2000/svg" xmlns:xlink="http://www.w3.org/1999/xlink" width="127" height="92.771" viewBox="0 0 127 92.771"><defs><style>.a{fill:#fff;stroke:#707070;}.b{fill:#7ab3d7;}.c{clip-path:url(#a);}.d{fill:#262c5a;}</style><clipPath id="a"><rect class="a" width="127" height="88" transform="translate(0 0.331)"/></clipPath></defs><g transform="translate(-834.5 -748.545)"><rect class="b" width="94.657" height="79.382" rx="7" transform="translate(850.672 761.934)"/><g class="c" transform="translate(834.5 748.214)"><g transform="translate(26.69 -0.004)"><path class="d" d="M48.232,24.158a7.938,7.938,0,0,0,7.96-7.823,8.055,8.055,0,0,0-7.96-7.96,7.892,7.892,0,0,0,0,15.783Z" transform="translate(-26.273 -8.375)"/><path class="d" d="M50.958,41.64,73.466,27.092a3.444,3.444,0,0,0,1.647-3.019,2.758,2.758,0,0,0-.549-1.784,3.591,3.591,0,0,0-4.8-1.372l-22.1,12.077a7.44,7.44,0,0,1-3.431.823H33.254a5.5,5.5,0,0,0-5.215,3.568L19.118,61.128a4.007,4.007,0,0,0-.274,1.235,3.58,3.58,0,0,0,1.51,2.882,3.74,3.74,0,0,0,5.627-1.372l5.627-11.94v14.41L29.823,95.988v.274a4.129,4.129,0,0,0,4.117,4.117,4.266,4.266,0,0,0,4.117-3.706l3.157-30.056L44.92,96.4a4.423,4.423,0,0,0,5.352,3.843,3.677,3.677,0,0,0,3.706-3.98L51.1,61.952V41.64Z" transform="translate(-18.844 -12.544)"/><path class="d" d="M113.651,81.28h-3.157V70.164h1.647a1.372,1.372,0,0,0,0-2.745H96.5a1.372,1.372,0,0,0,0,2.745h1.647V81.28H94.986A4.129,4.129,0,0,0,90.869,85.4V110.65a4.129,4.129,0,0,0,4.117,4.117h18.665a4.129,4.129,0,0,0,4.117-4.117V85.4A4.044,4.044,0,0,0,113.651,81.28Zm-14.41,22.1a1.372,1.372,0,0,1-2.745,0V92.534a1.372,1.372,0,0,1,2.745,0Zm6.45,3.98a1.372,1.372,0,0,1-2.745,0V88.829a1.372,1.372,0,0,1,2.745,0ZM101.025,81.28V70.164h6.862V81.28Zm11.254,22.1a1.372,1.372,0,0,1-2.745,0V92.534a1.372,1.372,0,0,1,2.745,0Z" transform="translate(-43.657 -28.716)"/></g></g></g></svg>