<svg xmlns="http://www.w3.org/2000/svg" xmlns:xlink="http://www.w3.org/1999/xlink" width="42" height="42" viewBox="0 0 72 72"><defs><style>.a{fill:#eba510;}.b{fill:#f0f7e8;fill-rule:evenodd;}.c{filter:url(#a);}</style><filter id="a" x="0" y="0" width="72" height="72" filterUnits="userSpaceOnUse"><feOffset dy="3" input="SourceAlpha"/><feGaussianBlur stdDeviation="3" result="b"/><feFlood flood-opacity="0.161"/><feComposite operator="in" in2="b"/><feComposite in="SourceGraphic"/></filter></defs><g transform="translate(9 6)"><g class="c" transform="matrix(1, 0, 0, 1, -9, -6)"><circle class="a" cx="27" cy="27" r="27" transform="translate(9 6)"/></g><g transform="translate(13.114 13.886)"><path class="b" d="M12,16a4,4,0,1,0-4-4A4,4,0,0,0,12,16Zm0,2a6,6,0,1,0-6-6A6,6,0,0,0,12,18Z" transform="translate(1.5 1.5)"/><path class="b" d="M12.375,0h2.25V4.57a9.124,9.124,0,0,0-2.25,0ZM7.981,6.39,4.749,3.159,3.158,4.75,6.39,7.981A9.054,9.054,0,0,1,7.981,6.39ZM4.57,12.375H0v2.25H4.57a9.124,9.124,0,0,1,0-2.25Zm1.82,6.644L3.158,22.25l1.591,1.591L7.981,20.61A9.054,9.054,0,0,1,6.39,19.019Zm5.985,3.412V27h2.25V22.43a9.122,9.122,0,0,1-2.25,0Zm6.644-1.82,3.232,3.232,1.591-1.591L20.61,19.019A9.054,9.054,0,0,1,19.019,20.61Zm3.412-5.985H27v-2.25H22.43a9.122,9.122,0,0,1,0,2.25ZM20.61,7.981,23.841,4.75,22.25,3.159,19.019,6.39A9.054,9.054,0,0,1,20.61,7.981Z"/></g></g></svg>