<svg xmlns="http://www.w3.org/2000/svg" width="11.415" height="14.687" viewBox="0 0 11.415 14.687"><defs><style>.a{fill:#00042c;}</style></defs><g transform="translate(-515.384 -372.143)"><g transform="translate(515.384 372.143)"><path class="a" d="M7.274,48.487a2.666,2.666,0,0,1-2.2-1.2c-1.8-3-3.471-6.008-3.471-7.744A5.784,5.784,0,0,1,7.341,33.8a5.684,5.684,0,0,1,5.674,5.741c0,1.469-1.135,3.939-3.538,7.744A2.513,2.513,0,0,1,7.274,48.487Zm.067-13.351a4.445,4.445,0,0,0-4.406,4.406c0,1.669,2.27,5.474,3.271,7.076a1.487,1.487,0,0,0,1.135.6,1.312,1.312,0,0,0,1.135-.6c2.737-4.339,3.271-6.208,3.271-7.076A4.4,4.4,0,0,0,7.341,35.135Z" transform="translate(-1.6 -33.8)"/></g><g transform="translate(518.088 374.601)"><path class="a" d="M8.7,43.708a3.08,3.08,0,0,1-3-3,2.992,2.992,0,0,1,3-3,3,3,0,1,1,0,6.008Zm0-4.673A1.653,1.653,0,0,0,7.035,40.7,1.7,1.7,0,0,0,8.7,42.373,1.743,1.743,0,0,0,10.373,40.7,1.7,1.7,0,0,0,8.7,39.035Z" transform="translate(-5.7 -37.7)"/></g></g></svg>