<svg xmlns="http://www.w3.org/2000/svg" xmlns:xlink="http://www.w3.org/1999/xlink" width="20" height="20" viewBox="0 0 26 24"><defs><style>.a,.c{fill:#fff;}.a{stroke:#707070;}.b{clip-path:url(#a);}</style><clipPath id="a"><rect class="a" width="26" height="24" transform="translate(63 346.556)"/></clipPath></defs><g class="b" transform="translate(-63 -346.556)"><path class="c" d="M20.214,26.286H4.429a1.857,1.857,0,0,1-1.857-1.857V9.571A1.857,1.857,0,0,1,4.429,7.714H20.214a1.857,1.857,0,0,1,1.857,1.857v3.77L27.1,9.747a.929.929,0,0,1,1.467.753v13a.929.929,0,0,1-1.468.752l-5.032-3.593v3.77A1.857,1.857,0,0,1,20.214,26.286ZM4.429,9.571V24.429H20.214V18.857a.929.929,0,0,1,1.468-.752L26.714,21.7V12.3l-5.033,3.594a.929.929,0,0,1-1.467-.752V9.571Z" transform="translate(60.429 341.556)"/></g></svg>