<svg xmlns="http://www.w3.org/2000/svg" width="20" height="20" viewBox="0 0 22.349 22"><defs><style>.a{fill:#fff;}</style></defs><g transform="translate(0 -0.5)"><g transform="translate(0.175 6.506)"><path class="a" d="M14.887,33.694H.849A.35.35,0,0,1,.5,33.344.33.33,0,0,1,.849,33H14.887a7.094,7.094,0,0,0,7.089-7.089v-.454A7.077,7.077,0,0,0,15.69,18.4a.351.351,0,1,1,.07-.7,7.789,7.789,0,0,1,6.914,7.752v.454a7.794,7.794,0,0,1-7.787,7.787Z" transform="translate(-0.5 -17.7)"/></g><g transform="translate(0.175 8.287)"><path class="a" d="M1.2,23.5H.849A.35.35,0,0,1,.5,23.149.33.33,0,0,1,.849,22.8H1.2a.349.349,0,1,1,0,.7Z" transform="translate(-0.5 -22.8)"/><g transform="translate(2.025 0)"><path class="a" d="M17.021,35.162h-.7a.35.35,0,0,1-.349-.349.33.33,0,0,1,.349-.349h.7a.35.35,0,0,1,.349.349A.33.33,0,0,1,17.021,35.162Zm-2.41,0h-.7a.35.35,0,0,1-.349-.349.33.33,0,0,1,.349-.349h.7a.349.349,0,0,1,0,.7Zm-2.41,0h-.7a.35.35,0,0,1-.349-.349.33.33,0,0,1,.349-.349h.7a.349.349,0,0,1,0,.7Zm-2.41,0h-.7a.35.35,0,0,1-.349-.349.33.33,0,0,1,.349-.349h.7a.349.349,0,0,1,0,.7Zm-2.444,0h-.7a.35.35,0,0,1-.349-.349.33.33,0,0,1,.349-.349h.7a.35.35,0,0,1,.349.349A.33.33,0,0,1,7.348,35.162Zm11.419,0a.332.332,0,1,1-.035-.663,3.848,3.848,0,0,0,.629-.07.336.336,0,1,1,.1.663A5.248,5.248,0,0,0,18.767,35.162Zm2.3-.629a.367.367,0,0,1-.314-.175.334.334,0,0,1,.14-.454c.175-.1.384-.21.559-.314a.354.354,0,1,1,.384.594c-.21.14-.419.244-.629.384C21.176,34.5,21.106,34.533,21.071,34.533Zm1.851-1.5a.5.5,0,0,1-.21-.07.337.337,0,0,1-.035-.489,5,5,0,0,0,.384-.524.354.354,0,1,1,.594.384c-.14.21-.279.419-.419.594A1.11,1.11,0,0,1,22.922,33.032ZM24.04,30.9h-.1a.359.359,0,0,1-.244-.419,4.06,4.06,0,0,0,.14-.629.336.336,0,0,1,.663.1c-.035.244-.1.489-.14.7a.335.335,0,0,1-.314.244Zm.14-2.41a.376.376,0,0,1-.349-.279,4.061,4.061,0,0,0-.14-.629.343.343,0,0,1,.663-.175,6.167,6.167,0,0,1,.14.7.346.346,0,0,1-.279.384h-.035Zm-.8-2.235a.356.356,0,0,1-.279-.175,5,5,0,0,0-.384-.524.374.374,0,0,1,.035-.489.345.345,0,0,1,.489.07c.14.175.279.384.419.594a.376.376,0,0,1-.1.489A1.512,1.512,0,0,0,23.376,26.257ZM21.7,24.511a.5.5,0,0,1-.21-.07c-.175-.1-.349-.244-.559-.349a.336.336,0,1,1,.314-.594,6.075,6.075,0,0,1,.629.384.376.376,0,0,1,.1.489A.431.431,0,0,1,21.7,24.511ZM19.5,23.6h-.07a3.848,3.848,0,0,0-.629-.07.332.332,0,1,1,.035-.663,2.658,2.658,0,0,1,.733.1.346.346,0,0,1,.279.384.5.5,0,0,1-.349.244Zm-2.41-.1h-.7a.35.35,0,0,1-.349-.349.33.33,0,0,1,.349-.349h.7a.349.349,0,0,1,0,.7Zm-2.444,0h-.7a.35.35,0,0,1-.349-.349.33.33,0,0,1,.349-.349h.7a.35.35,0,0,1,.349.349A.33.33,0,0,1,14.646,23.5Zm-2.41,0h-.7a.35.35,0,0,1-.349-.349.33.33,0,0,1,.349-.349h.7a.35.35,0,0,1,.349.349A.33.33,0,0,1,12.237,23.5Zm-2.41,0h-.7a.35.35,0,0,1-.349-.349.33.33,0,0,1,.349-.349h.7a.349.349,0,1,1,0,.7Zm-2.41,0h-.7a.35.35,0,0,1-.349-.349.33.33,0,0,1,.349-.349h.7a.349.349,0,1,1,0,.7Z" transform="translate(-6.3 -22.8)"/></g><g transform="translate(0 11.663)"><path class="a" d="M1.2,56.9H.849A.35.35,0,0,1,.5,56.549.33.33,0,0,1,.849,56.2H1.2a.349.349,0,1,1,0,.7Z" transform="translate(-0.5 -56.2)"/></g></g><g transform="translate(0.175 10.138)"><path class="a" d="M14.643,36.8h-8a.35.35,0,0,1-.349-.349.33.33,0,0,1,.349-.349h8a3.649,3.649,0,1,0,.035-7.3H.849A.35.35,0,0,1,.5,28.449.33.33,0,0,1,.849,28.1H14.678a4.348,4.348,0,0,1-.035,8.7Z" transform="translate(-0.5 -28.1)"/></g><g transform="translate(0 0.535)"><path class="a" d="M13.549,7.584H12.327a.35.35,0,0,1-.349-.349,1.152,1.152,0,1,0-2.3,0,.35.35,0,0,1-.349.349h-4.3a.35.35,0,0,1-.349-.349,1.152,1.152,0,0,0-2.3,0,.35.35,0,0,1-.349.349H1.4A1.379,1.379,0,0,1,0,6.187V2A1.379,1.379,0,0,1,1.4.6H11.7a1.457,1.457,0,0,1,1.257.768l1.327,2.689a1.234,1.234,0,0,1,.14.594l-.035,2.06a.73.73,0,0,1-.21.524c0,.035-.035.035-.035.07a.8.8,0,0,1-.594.279Zm-.908-.7h.908a.128.128,0,0,0,.1-.035.432.432,0,0,1,.07-.1l.035-2.06a.658.658,0,0,0-.07-.279L12.362,1.717a.73.73,0,0,0-.629-.419H1.4A.7.7,0,0,0,.7,2v4.19a.7.7,0,0,0,.7.7h.314a1.871,1.871,0,0,1,1.816-1.5,1.871,1.871,0,0,1,1.816,1.5H9.01a1.849,1.849,0,0,1,3.632,0Z" transform="translate(0 -0.6)"/></g><g transform="translate(0 0.5)"><path class="a" d="M13.933,4.481.349,4.446A.35.35,0,0,1,0,4.1V1.9A1.379,1.379,0,0,1,1.4.5H11.7a1.457,1.457,0,0,1,1.257.768l1.292,2.689a.413.413,0,0,1-.035.349.311.311,0,0,1-.279.175ZM.7,3.748l12.711.035-1.048-2.2a.7.7,0,0,0-.629-.384H1.4a.7.7,0,0,0-.7.7Z" transform="translate(0 -0.5)"/></g><g transform="translate(0 0.5)"><path class="a" d="M3.562,4.446H.349A.35.35,0,0,1,0,4.1V1.9A1.379,1.379,0,0,1,1.4.5H3.562a.35.35,0,0,1,.349.349V4.1A.376.376,0,0,1,3.562,4.446ZM.7,3.748H3.213V1.2H1.4a.7.7,0,0,0-.7.7Z" transform="translate(0 -0.5)"/></g><g transform="translate(6.81 0.5)"><path class="a" d="M19.849,4.481a.35.35,0,0,1-.349-.349V.849A.35.35,0,0,1,19.849.5.33.33,0,0,1,20.2.849V4.132A.376.376,0,0,1,19.849,4.481Z" transform="translate(-19.5 -0.5)"/></g><g transform="translate(9.673 0.5)"><path class="a" d="M28.049,4.481a.35.35,0,0,1-.349-.349V.849A.35.35,0,0,1,28.049.5.33.33,0,0,1,28.4.849V4.132A.376.376,0,0,1,28.049,4.481Z" transform="translate(-27.7 -0.5)"/></g><g transform="translate(1.676 5.319)"><path class="a" d="M6.651,18a1.851,1.851,0,1,1,0-3.7,1.851,1.851,0,1,1,0,3.7Zm0-3a1.152,1.152,0,1,0,0,2.3A1.14,1.14,0,0,0,7.8,16.151,1.119,1.119,0,0,0,6.651,15Z" transform="translate(-4.8 -14.3)"/></g><g transform="translate(8.975 5.319)"><path class="a" d="M27.551,18a1.851,1.851,0,0,1,0-3.7,1.851,1.851,0,1,1,0,3.7Zm0-3a1.152,1.152,0,0,0,0,2.3A1.14,1.14,0,0,0,28.7,16.151,1.119,1.119,0,0,0,27.551,15Z" transform="translate(-25.7 -14.3)"/></g><g transform="translate(0.559 12.129)"><path class="a" d="M4.568,41.483a1.4,1.4,0,0,1-1.152-.629C2.473,39.283,1.6,37.711,1.6,36.8a3.026,3.026,0,0,1,3-3,2.973,2.973,0,0,1,2.968,3c0,.768-.594,2.06-1.851,4.051A1.314,1.314,0,0,1,4.568,41.483ZM4.6,34.5a2.325,2.325,0,0,0-2.3,2.3c0,.873,1.187,2.863,1.711,3.7a.778.778,0,0,0,.594.314A.686.686,0,0,0,5.2,40.5c1.432-2.27,1.711-3.248,1.711-3.7A2.3,2.3,0,0,0,4.6,34.5Z" transform="translate(-1.6 -33.8)"/></g><g transform="translate(1.99 13.49)"><path class="a" d="M7.271,40.843A1.611,1.611,0,0,1,5.7,39.271,1.565,1.565,0,0,1,7.271,37.7a1.571,1.571,0,1,1,0,3.143Zm0-2.444a.865.865,0,0,0-.873.873.887.887,0,0,0,.873.873.912.912,0,0,0,.873-.873A.887.887,0,0,0,7.271,38.4Z" transform="translate(-5.7 -37.7)"/></g></g></svg>