<svg xmlns="http://www.w3.org/2000/svg" width="20" height="20" viewBox="0 0 22.047 21.679"><defs><style>.a{fill:#f0f2f5;}</style></defs><g transform="translate(-2 -2)"><path class="a" d="M12.879,5.572v-2.2A.368.368,0,0,1,13.247,3h5.879a.368.368,0,0,1,.367.367v2.2a.368.368,0,0,1-.367.367H13.247A.368.368,0,0,1,12.879,5.572Zm1.47,1.1h3.674v.735H14.349Zm-5.519,6.6.833-3.542a1.1,1.1,0,0,1,1.048-.848,1.847,1.847,0,0,0-.037.366v1.837h.735V9.247a1.1,1.1,0,0,1,1.1-1.1h7.349a1.1,1.1,0,0,1,1.1,1.1v1.837H21.7V9.247a1.814,1.814,0,0,0-.037-.365,1.1,1.1,0,0,1,1.048.848l.833,3.542a13.566,13.566,0,0,1,.36,3.1,3.992,3.992,0,0,1-.579,2.07,2.567,2.567,0,0,0-2.342,2.264,5.922,5.922,0,0,0-1.183-.525,26.783,26.783,0,0,1-.3-3.984V8.879h-.735V16.2a27.446,27.446,0,0,0,.27,3.8,5.819,5.819,0,0,0-1-.09H14.349a5.819,5.819,0,0,0-1,.09,27.447,27.447,0,0,0,.27-3.8V8.879h-.735V16.2a26.686,26.686,0,0,1-.3,3.984,5.922,5.922,0,0,0-1.183.525A2.564,2.564,0,0,0,9.05,18.445a3.992,3.992,0,0,1-.58-2.071,13.572,13.572,0,0,1,.36-3.1Zm16.543,8.777a2.263,2.263,0,0,1-2.264,2.264H9.264A2.264,2.264,0,0,1,7,22.048V21.1a1.9,1.9,0,0,1,1.781-1.929A1.836,1.836,0,0,1,10.674,21v.735a1.839,1.839,0,0,0,1.837,1.837h.735v-.735h-.735a1.1,1.1,0,0,1-1.1-1.1v-.175a5.177,5.177,0,0,1,2.94-.927h3.674a5.177,5.177,0,0,1,2.94.927v.175a1.1,1.1,0,0,1-1.1,1.1h-.735v.735h.735A1.839,1.839,0,0,0,21.7,21.74V21a1.837,1.837,0,0,1,1.894-1.836,1.9,1.9,0,0,1,1.78,1.929Z" transform="translate(-3.163 -0.633)"/><path class="a" d="M52,3.837a1.837,1.837,0,0,1,1.837,1.837,1.837,1.837,0,0,1,1.837-1.837A1.837,1.837,0,0,1,53.837,2,1.837,1.837,0,0,1,52,3.837Z" transform="translate(-31.628 0)"/><path class="a" d="M2,12.837a1.837,1.837,0,0,1,1.837,1.837,1.837,1.837,0,0,1,1.837-1.837A1.837,1.837,0,0,1,3.837,11,1.837,1.837,0,0,1,2,12.837Z" transform="translate(0 -5.693)"/></g></svg>